<svg xmlns="http://www.w3.org/2000/svg" viewBox="0 0 300 300"><defs><style>.cls-1{fill:#81b2ce;}.cls-2{fill:#d8d6d6;}.cls-3{font-size:66.67px;fill:#fff;font-family:Montserrat-Bold, Montserrat;font-weight:700;}.cls-4{fill:#353435;}.cls-5{fill:#98965b;}</style></defs><title>ID-project-icons</title><g id="Layer_4" data-name="Layer 4"><path class="cls-1" d="M57.47,81.57H241a23.62,23.62,0,0,1,23.62,23.62V128a0,0,0,0,1,0,0H33.85a0,0,0,0,1,0,0V105.2A23.62,23.62,0,0,1,57.47,81.57Z"/><path class="cls-2" d="M33.85,128H264.63a0,0,0,0,1,0,0V232A23.62,23.62,0,0,1,241,255.58H57.47A23.62,23.62,0,0,1,33.85,232V128A0,0,0,0,1,33.85,128Z"/><text class="cls-3" transform="translate(114.25 207.47)">12</text><circle class="cls-4" cx="86.39" cy="97.11" r="10.03"/><rect class="cls-5" x="78.63" y="51.31" width="15.52" height="45.8" rx="7.76" ry="7.76"/><circle class="cls-4" cx="213.19" cy="97.11" r="10.03"/><rect class="cls-5" x="205.43" y="51.31" width="15.52" height="45.8" rx="7.76" ry="7.76"/></g></svg>