<svg xmlns="http://www.w3.org/2000/svg" viewBox="0 0 300 300"><defs><style>.cls-1{fill:#ed9357;stroke:#f9f9f9;stroke-width:2.5px;}.cls-1,.cls-2,.cls-3{stroke-miterlimit:10;}.cls-2,.cls-6{fill:#85abbb;}.cls-2,.cls-3{stroke:#fbfbfa;stroke-width:2.52px;}.cls-3,.cls-8{fill:#fff;}.cls-4{fill:#b1cdda;}.cls-5{fill:#e9e9ea;}.cls-7{fill:#adaeaf;}.cls-8{font-size:31.93px;font-family:Montserrat-Bold, Montserrat;font-weight:700;}</style></defs><title>ID-project-icons</title><g id="Layer_2" data-name="Layer 2"><polygon class="cls-1" points="225.46 147.79 42.69 147.79 134.07 66.75 225.46 147.79"/><path class="cls-2" d="M227.56,148H40.63V264.2a14.28,14.28,0,0,0,14.28,14.28H213.28a14.28,14.28,0,0,0,12.95-8.28l-69.18-61.93H111.69L43.14,270.2l68.55-61.93h45.36l69.18,61.93a14.2,14.2,0,0,0,1.33-6Z"/><line class="cls-2" x1="111.69" y1="208.27" x2="40.63" y2="148.02"/><line class="cls-2" x1="227.56" y1="148.02" x2="157.05" y2="208.27"/><rect class="cls-3" x="62.9" y="92.28" width="143.42" height="143.42"/><rect class="cls-4" x="81.85" y="119.94" width="62.79" height="4.98"/><rect class="cls-5" x="81.85" y="137.92" width="105.13" height="4.98"/><rect class="cls-5" x="81.85" y="155.9" width="105.13" height="4.98"/><rect class="cls-5" x="81.85" y="173.88" width="105.13" height="4.98"/><rect class="cls-5" x="81.85" y="191.86" width="105.13" height="4.98"/><path class="cls-6" d="M40.81,148.27l70.46,59.92h46l70.24-59.92V264.59a14.28,14.28,0,0,1-14.28,14.29H55.09a14.28,14.28,0,0,1-14.28-14.29Z"/><circle class="cls-7" cx="225.45" cy="56.22" r="30.67"/><text class="cls-8" transform="translate(207.32 60.59) rotate(12.06)">@</text></g></svg>