<svg id="Layer_1" data-name="Layer 1" xmlns="http://www.w3.org/2000/svg" viewBox="0 0 300 300"><defs><style>.cls-1{fill:#fff;}.cls-2{fill:none;stroke:#e9e9ea;stroke-miterlimit:10;stroke-width:6.82px;}.cls-3{fill:#3657a3;}.cls-3,.cls-4{opacity:0.75;}.cls-4{fill:#a3bee4;}.cls-5{fill:#e9e9ea;}.cls-6{fill:#edeba9;}</style></defs><title>ID-project-icons</title><path class="cls-1" d="M183.47,139.84c-1.65-8.56-2.48-25.12-15.46-35.61s-17.94-10.49-17.94-10.49-9.66-2.49-24.29,0c0,0-3.86,1.71-8.1,3.81,0,0-9.78,5.8-20.62,11.16S81.62,112,81.62,112s4.6,2,15.44-3.31,20.62-11.16,20.62-11.16c-2.57,1.26-5.28,2.67-7.36,3.92,0,0-8.83,5-38.37-7.46s-47.2,21-47.2,21-6.9,20.43-4.14,38.37,11.87,29,11.87,29,9.66,10.21,14.63,16.56,4.69,28.43,4.69,28.43.28,24.57,3.59,30.64,3.31,14.63,22.91,16c0,0,1.93-1.1,2.48-5s2.77-37,3.87-39.47,6.83-28.71,17.63-27.6,12.46,21.53,12.46,21.53,1.65,43.34,5.52,50.51S139,271,139,269.3c0,0,6.35-9.66,7.45-15.73S149,223.75,149,223.75s-.83-9.38,9.11-24.56c0,0,11-11.87,16-20.71S185.13,148.39,183.47,139.84Z"/><path class="cls-2" d="M183.47,139.84c-1.65-8.56-2.48-25.12-15.46-35.61s-17.94-10.49-17.94-10.49-9.66-2.49-24.29,0c0,0-3.86,1.71-8.1,3.81,0,0-9.78,5.8-20.62,11.16S81.62,112,81.62,112s4.6,2,15.44-3.31,20.62-11.16,20.62-11.16c-2.57,1.26-5.28,2.67-7.36,3.92,0,0-8.83,5-38.37-7.46s-47.2,21-47.2,21-6.9,20.43-4.14,38.37,11.87,29,11.87,29,9.66,10.21,14.63,16.56,4.69,28.43,4.69,28.43.28,24.57,3.59,30.64,3.31,14.63,22.91,16c0,0,1.93-1.1,2.48-5s2.77-37,3.87-39.47,6.83-28.71,17.63-27.6,12.46,21.53,12.46,21.53,1.65,43.34,5.52,50.51S139,271,139,269.3c0,0,6.35-9.66,7.45-15.73S149,223.75,149,223.75s-.83-9.38,9.11-24.56c0,0,11-11.87,16-20.71S185.13,148.39,183.47,139.84Z"/><rect class="cls-3" x="119.59" y="43.33" width="26.09" height="4.97" transform="translate(258.81 -15.58) rotate(135)"/><rect class="cls-4" x="123.1" y="46.84" width="26.09" height="4.97" transform="translate(267.29 -12.07) rotate(135)"/><rect class="cls-3" x="126.61" y="50.35" width="26.09" height="4.97" transform="translate(275.77 -8.56) rotate(135)"/><rect class="cls-4" x="130.12" y="53.86" width="26.09" height="4.97" transform="translate(284.25 -5.04) rotate(135)"/><rect class="cls-3" x="133.63" y="57.38" width="26.09" height="4.97" transform="translate(292.73 -1.53) rotate(135)"/><rect class="cls-4" x="137.14" y="60.89" width="26.09" height="4.97" transform="translate(301.2 1.98) rotate(135)"/><rect class="cls-3" x="140.66" y="64.4" width="26.09" height="4.97" transform="translate(309.68 5.49) rotate(135)"/><rect class="cls-4" x="144.17" y="67.91" width="26.09" height="4.97" transform="translate(318.16 9) rotate(135)"/><rect class="cls-3" x="147.68" y="71.42" width="26.09" height="4.97" transform="translate(326.64 12.51) rotate(135)"/><rect class="cls-5" x="200.32" y="-0.9" width="11.67" height="201.1" rx="5.38" ry="5.38" transform="translate(422.38 24.34) rotate(135)"/><polygon class="cls-6" points="58.01 119.68 59.67 126.66 66.35 129.25 60.23 132.98 59.83 140.15 54.39 135.47 47.45 137.3 50.22 130.69 46.33 124.66 53.48 125.24 58.01 119.68"/></svg>